<mxfile host="app.diagrams.net" modified="2020-05-24T01:49:17.438Z" agent="5.0 (Windows NT 10.0; Win64; x64) AppleWebKit/537.36 (KHTML, like Gecko) Chrome/81.0.4044.138 Safari/537.36" etag="iDsVmsgnYkyBhORBASle" version="13.1.3" type="github">
  <diagram id="iFrnpqUqrUvM_LkgC43C" name="Page-1">
    <mxGraphModel dx="1084" dy="562" grid="1" gridSize="10" guides="1" tooltips="1" connect="1" arrows="1" fold="1" page="1" pageScale="1" pageWidth="850" pageHeight="1100" math="0" shadow="0">
      <root>
        <mxCell id="0" />
        <mxCell id="1" parent="0" />
        <mxCell id="o1p2eKvqM2puoVH-viOR-6" style="edgeStyle=orthogonalEdgeStyle;rounded=0;orthogonalLoop=1;jettySize=auto;html=1;" parent="1" source="o1p2eKvqM2puoVH-viOR-1" target="o1p2eKvqM2puoVH-viOR-5" edge="1">
          <mxGeometry relative="1" as="geometry" />
        </mxCell>
        <mxCell id="o1p2eKvqM2puoVH-viOR-8" style="edgeStyle=orthogonalEdgeStyle;rounded=0;orthogonalLoop=1;jettySize=auto;html=1;" parent="1" source="o1p2eKvqM2puoVH-viOR-1" target="o1p2eKvqM2puoVH-viOR-7" edge="1">
          <mxGeometry relative="1" as="geometry" />
        </mxCell>
        <mxCell id="o1p2eKvqM2puoVH-viOR-1" value="&lt;h1 style=&quot;font-size: 16px&quot;&gt;Starting State&lt;/h1&gt;&lt;div&gt;You awaken on the ground in a fog, feeling as though you have slept for an inordinate amount of time. Your head is swimming. Around you is a mass of seemingly infinite darkness. The only light is a narrow but glaring cone that illuminates a path forward.&amp;nbsp;&lt;/div&gt;&lt;div&gt;&lt;br&gt;&lt;/div&gt;&lt;div&gt;1. Follow the path into the light&lt;/div&gt;&lt;div&gt;2. Stumble into the darkness&lt;/div&gt;" style="text;html=1;strokeColor=#d6b656;fillColor=#fff2cc;spacing=5;spacingTop=-20;whiteSpace=wrap;overflow=hidden;rounded=0;comic=0;glass=0;labelBorderColor=none;perimeterSpacing=0;direction=west;" parent="1" vertex="1">
          <mxGeometry x="30" y="30" width="190" height="230" as="geometry" />
        </mxCell>
        <mxCell id="o1p2eKvqM2puoVH-viOR-5" value="&lt;h1 style=&quot;font-size: 16px&quot;&gt;Room1&lt;/h1&gt;&lt;div&gt;&lt;br&gt;&lt;/div&gt;" style="text;html=1;strokeColor=#d6b656;fillColor=#fff2cc;spacing=5;spacingTop=-20;whiteSpace=wrap;overflow=hidden;rounded=0;comic=0;glass=0;labelBorderColor=none;perimeterSpacing=0;" parent="1" vertex="1">
          <mxGeometry x="310" y="20" width="190" height="120" as="geometry" />
        </mxCell>
        <mxCell id="o1p2eKvqM2puoVH-viOR-7" value="&lt;h1 style=&quot;font-size: 16px&quot;&gt;Starting State&lt;/h1&gt;&lt;div&gt;Awaken from dream&lt;/div&gt;&lt;div&gt;dark path&lt;/div&gt;&lt;div&gt;&lt;br&gt;&lt;/div&gt;&lt;div&gt;head to light&amp;nbsp;&lt;/div&gt;&lt;div&gt;wander in dark&lt;/div&gt;" style="text;html=1;strokeColor=#d6b656;fillColor=#fff2cc;spacing=5;spacingTop=-20;whiteSpace=wrap;overflow=hidden;rounded=0;comic=0;glass=0;labelBorderColor=none;perimeterSpacing=0;" parent="1" vertex="1">
          <mxGeometry x="30" y="370" width="190" height="120" as="geometry" />
        </mxCell>
      </root>
    </mxGraphModel>
  </diagram>
</mxfile>
